# xmcd
#
# Track frame offsets:
#	150
#	14409
#	32679
#	50068
#	65425
#	84176
#	96858
#	112170
#	127569
#	145386
#	163737
#	183566
#	199815
#	213042
#	229044
#	245718
#	261672
#	276792
#
# Disc length: 3866 seconds
#
# Revision: 0
# Processed by: cddbd v1.5.2PL0 Copyright (c) Steve Scherf et al.
# Submitted via: audiograbber 1.83.01
#
DISCID=070f1812
DTITLE=Various Artist - Heartland presents Country Love CD1
DYEAR=1995
DGENRE=Country
TTITLE0=George Strait - Love Without End, Amen
TTITLE1=Pam Tillis - Maybe It Was Memphis
TTITLE2=Ricky Van Shelton - Keep It Between The Lines
TTITLE3=Mark Chesnutt - I Just Wanted You To Know
TTITLE4=Little Texas - My Love
TTITLE5=Faith Hill - Wild One
TTITLE6=Confederate Railroad - Queen Of Memphis
TTITLE7=Bryan White - Someone Else's Star
TTITLE8=John Berry - Your Love Amazes Me
TTITLE9=John Michael Montgomery - I Love The Way You Love Me
TTITLE10=The Judds - Young Love
TTITLE11=Randy Travis - Forever And Ever, Amen
TTITLE12=Sammy Kershaw - She Don't Know She's Beautiful
TTITLE13=Toby Keith - Should've Been A Cowboy
TTITLE14=Brother Phelps - Let Go
TTITLE15=Tracy Lawrence - Texas Tornado
TTITLE16=Billy Dean - Somewhere In My Broken Heart
TTITLE17=Dwight Yoakam - If There Was A Way
EXTD=
EXTT0=George Strait
EXTT1=Pam Tillis
EXTT2=Ricky Van Shelton
EXTT3=Mark Chesnutt
EXTT4=Little Texas
EXTT5=Faith Hill
EXTT6=Confederate Railroad
EXTT7=Bryan White
EXTT8=John Berry
EXTT9=John Michael Montgomery
EXTT10=The Judds
EXTT11=Randy Travis
EXTT12=Sammy Kershaw
EXTT13=Toby Keith
EXTT14=Brother Phelps
EXTT15=Tracy Lawrence
EXTT16=Billy Dean
EXTT17=Dwight Yoakam
PLAYORDER=
